<?xml version="1.0" encoding="utf-8"?>
<!-- Generator: Adobe Illustrator 22.1.0, SVG Export Plug-In . SVG Version: 6.00 Build 0)  -->
<svg version="1.1" id="Ebene_1" xmlns="http://www.w3.org/2000/svg" xmlns:xlink="http://www.w3.org/1999/xlink" x="0px" y="0px"
	 viewBox="0 0 429.8 105.3" style="enable-background:new 0 0 429.8 105.3;" xml:space="preserve">
<style type="text/css">
	.st0{fill:#FFFFFF;}
</style>
<title>Element 1</title>
<g id="Ebene_2_1_">
	<g id="Logo">
		<path class="st0" d="M28.5,39.3l-7.9,63.9H0l7.9-63.9H28.5z M20.9,0c6.6-0.1,12,5.2,12.1,11.8c0,0.1,0,0.1,0,0.2
			c0,6.7-5.4,12.1-12.1,12.1S8.9,18.7,8.9,12c0-6.6,5.3-12,11.8-12C20.8,0,20.9,0,20.9,0z"/>
		<path class="st0" d="M66.8,39.3l-1,7c2.3-2.4,4.9-4.4,7.9-6c4.6-2.4,8.2-2.7,12.6-2.7c5.3,0,11.8,0.7,16.6,5.4s5.4,11.3,5.4,15.2
			c-0.1,4.1-0.4,8.1-1,12.2l-3.9,32.8H82.8l3.4-27.7c0.5-3.4,0.8-6.9,0.9-10.3c0.2-2.8-0.8-5.6-2.6-7.7c-2.1-1.9-4.8-2.8-7.6-2.7
			c-3.6,0-6.7,0.9-9.3,3.4c-3.7,3.9-4.6,10-5,13.5l-3.8,31.5H38.3l7.9-63.9H66.8z"/>
		<path class="st0" d="M162.2,56.3c-3.4-2.7-7.6-4.2-12-4.3c-2,0-4.7,0.4-6.2,1.7c-0.9,0.8-1.4,1.9-1.4,3.2c0,1.4,0.8,2.7,2,3.4
			c0.4,0.3,1.4,0.7,5,1.7l4.7,1.3c4.2,0.9,8,3,11,6c3.3,3.3,4.7,7.2,4.7,12.2c0,7.9-3.3,13-6,15.8c-6.9,7.2-16.9,8-22.5,8
			c-5.7,0.2-11.4-0.9-16.6-3.2c-3.6-1.7-7-3.9-9.9-6.6l8.7-13.9c2.3,2.2,5,4,7.9,5.4c2.8,1.2,5.8,1.9,8.9,2c2.2,0.1,4.4-0.4,6.3-1.4
			c1.6-0.7,2.6-2.4,2.6-4.2c0.1-1.6-0.7-3.1-2-4c-1.3-0.9-3.3-1.3-5-1.9l-4.6-1.4c-3.4-1-7.7-2.7-10.8-5.7
			c-2.9-3.1-4.4-7.2-4.3-11.5c0-5.6,2.1-10.9,6-14.9c6.6-6.5,16.5-6.9,21.1-6.9c7.5-0.2,14.9,2.1,21.1,6.5L162.2,56.3z"/>
		<path class="st0" d="M207.1,55.9l-5.9,47.3h-20.6l5.9-47.3H179l2-16.6h7.4l2.6-20.6h20.6l-2.6,20.6h12.6l-2,16.6H207.1z"/>
		<path class="st0" d="M252.5,39.3l-7.9,63.9H224l7.9-63.9H252.5z M244.9,0c6.6,0,12,5.3,12,11.8c0,0.1,0,0.1,0,0.2
			c0,6.6-5.4,12-12,12s-12-5.4-12-12c0-6.6,5.3-12,11.9-12C244.7,0,244.8,0,244.9,0z"/>
		<path class="st0" d="M289.5,55.9l-5.9,47.3h-20.6l5.9-47.3h-7.5l2-16.6h7.5l2.6-20.6H294l-2.6,20.6H304l-2,16.6H289.5z"/>
		<path class="st0" d="M378.3,39.3l-4,34.5c-0.9,7.6-2.1,16.5-9.3,23.4c-7.6,7.3-17.8,8.2-25.1,8.2c-6.5,0-17.8-0.4-24.9-7.3
			c-4.3-4-6.9-10.5-6.9-17.2c0.1-3,0.3-6,0.7-9l3.9-32.5h20.6l-3.7,31.8c-0.4,4-0.7,5.4-0.7,7c-0.1,2.6,0.9,5.2,2.7,7
			c1.9,1.7,5.4,2.7,8.5,2.7c3.3,0,7.2-1.2,9.5-3.6c0.9-0.9,3.3-3.9,4.1-11.5l4-33.5L378.3,39.3z"/>
		<path class="st0" d="M415.1,55.9l-5.9,47.3h-20.6l5.9-47.3H387l2-16.6h7.5l2.6-20.6h20.6l-2.6,20.6h12.6l-2,16.6H415.1z"/>
	</g>
</g>
</svg>
