<svg xmlns="http://www.w3.org/2000/svg" viewBox="0 0 215.2 203.66"><defs><style>.cls-1{fill:#1d1d1b;}</style></defs><title>Element 1</title><g id="Ebene_2" data-name="Ebene 2"><g id="Logo"><path class="cls-1" d="M145.76,14.94l-8.33,21.64-7-2.69,8.33-21.64ZM147.38.3A4.33,4.33,0,0,1,149.89,6a4.37,4.37,0,0,1-8.15-3.14A4.32,4.32,0,0,1,147.38.3Z"/><path class="cls-1" d="M155.4,19l6,4.49-1.65,2.2a8.47,8.47,0,0,1,7.77,1.6,9.15,9.15,0,0,1,3.92,5.86A9.1,9.1,0,0,1,169.23,40l-8.79,11.74-6-4.49,7.13-9.54c.91-1.2,2-2.77,1.78-4.45a3.89,3.89,0,0,0-1.67-2.55,4.1,4.1,0,0,0-3.24-.87,5.94,5.94,0,0,0-3.82,2.67l-7.14,9.53-6-4.49Z"/><path class="cls-1" d="M184.18,55.81a8.53,8.53,0,0,0-1.28-4.11,3.18,3.18,0,0,0-1.78-1.36,1.57,1.57,0,0,0-1.12.21,1.22,1.22,0,0,0-.43,1.19,13,13,0,0,0,.64,2.28l.62,2a9.92,9.92,0,0,1,.54,4.32,5.54,5.54,0,0,1-2.59,4,8.41,8.41,0,0,1-6.35,1.52c-3.19-.57-5.09-2.66-6.49-4.66a13.77,13.77,0,0,1-2.72-9.71l5.95-.29a12.51,12.51,0,0,0,.05,3.07,7,7,0,0,0,1.19,3,4.22,4.22,0,0,0,1.77,1.62,2,2,0,0,0,1.68-.22,1.54,1.54,0,0,0,.63-1.46,9.66,9.66,0,0,0-.63-2.35l-.6-1.87a9.35,9.35,0,0,1-.4-4.29,5.76,5.76,0,0,1,2.5-3.77A7.18,7.18,0,0,1,181,43.68,10.17,10.17,0,0,1,187,48.09a14.65,14.65,0,0,1,2.79,7.44Z"/><path class="cls-1" d="M191.71,72.33l-16,6.21-2.71-7,16-6.21-.94-2.42,5.62-2.18.94,2.42,7-2.7,2.7,7-7,2.7L199,74.47l-5.62,2.18Z"/><path class="cls-1" d="M201.79,88.2,179,92.38,177.63,85l22.81-4.18ZM215.13,82a4.37,4.37,0,1,1-5.08-3.51A4.33,4.33,0,0,1,215.13,82Z"/><path class="cls-1" d="M196.61,104.9l-17.16-.09,0-7.49,17.16.09v-2.6l6,0,0,2.6,7.49,0,0,7.49-7.49,0,0,4.63-6,0Z"/><path class="cls-1" d="M200,124.2l-12.27-3.64a4.91,4.91,0,0,0-3.95.18,4.42,4.42,0,0,0-1.94,2.68,4.66,4.66,0,0,0,.14,3.35,5.06,5.06,0,0,0,3.24,2.27l12.26,3.64-2.13,7.18-13-3.85c-2.54-.76-4.86-1.72-6.39-4.61-1.74-3.28-1-7.14-.24-9.78s2.31-6.32,5.55-8.12c2.6-1.45,5-1.18,7.41-.46l13.41,4Z"/><path class="cls-1" d="M181,151.76l-14.41-9.31,4.06-6.29,14.41,9.31,1.41-2.18,5.07,3.27-1.41,2.19,6.29,4.06-4.06,6.29L186.09,155l-2.51,3.88-5.07-3.27Z"/><path class="cls-1" d="M159.22,173.74,148.93,160l6-4.49,10.29,13.73,2.16-1.62,3.62,4.83-2.16,1.62,2.74,3.67c1.56,2.08,3.13,4.61,2.75,8a8.55,8.55,0,0,1-3.61,6,12.05,12.05,0,0,1-3.89,1.93l-3.92-5.25a5.77,5.77,0,0,0,2.82-1,2.71,2.71,0,0,0,1.18-2.06c0-1.38-1.08-2.83-1.73-3.71l-2.34-3.12-4.74,3.56-3.62-4.83Z"/><path class="cls-1" d="M144.83,188.63l-4.38-12a4.82,4.82,0,0,0-2.5-3.07,4.38,4.38,0,0,0-3.31,0,4.6,4.6,0,0,0-2.6,2.11,5,5,0,0,0,.11,3.94l4.38,12-7,2.57-4.63-12.71c-.91-2.49-1.52-4.92-.1-7.87,1.6-3.35,5.12-5.08,7.71-6s6.45-1.91,9.83-.37c2.71,1.22,3.91,3.28,4.78,5.67l4.79,13.14Zm-5.34,14.79a4.11,4.11,0,1,1,2.45-5.27A4.17,4.17,0,0,1,139.49,203.42Zm10.65-3.89a4.1,4.1,0,1,1,2.45-5.26A4.15,4.15,0,0,1,150.14,199.53Z"/><path class="cls-1" d="M119.49,195.34l-7.47.41-.2-3.63a8.36,8.36,0,0,1-2.73,3.38,7.18,7.18,0,0,1-4,1.21,7.69,7.69,0,0,1-2.46-.23l0-7a7,7,0,0,0,3.42.65,4.91,4.91,0,0,0,3.65-1.76c1.57-1.86,1.59-4.36,1.48-6.34l-.52-9.39,7.48-.41Z"/><path class="cls-1" d="M78.34,166.23l4.06,2.32L81,194.41l-7.14-4.07.91-13.66-11.36,8.07-3.44-2,1.15-13.89-11.29,7.75-7.14-4.07,21.51-14.43,4.07,2.31-1.48,14.36Z"/><path class="cls-1" d="M34.12,137l9.75,14.31A6.3,6.3,0,0,0,46.34,148a5,5,0,0,0-1-4,6.15,6.15,0,0,0-2.25-2.11,4.5,4.5,0,0,0-2.5-.25l-3.38-6.26a10.39,10.39,0,0,1,7.33.42,13.87,13.87,0,0,1,5.55,5.09c2,2.88,3.17,5.77,2.45,9.53a12.41,12.41,0,0,1-5.43,7.91,13.15,13.15,0,0,1-9.55,2.23A12.11,12.11,0,0,1,29.84,155a12.26,12.26,0,0,1-2.3-9.57,13.23,13.23,0,0,1,5.94-8Zm.2,8.23A5.86,5.86,0,0,0,32.93,148a5.51,5.51,0,0,0,4.3,5.95,5.23,5.23,0,0,0,2.79-.33Z"/><path class="cls-1" d="M4.17,133.59,40,121.23l2.44,7.08L6.61,140.67Z"/><path class="cls-1" d="M20.74,111.81l17-2.53,1.11,7.41-17,2.52.38,2.58-6,.88-.39-2.57-7.4,1.1-1.1-7.41,7.4-1.1-.68-4.57,6-.89Z"/><path class="cls-1" d="M0,97.33a4.34,4.34,0,0,1,4.54-4.19,4.37,4.37,0,0,1-.34,8.73A4.33,4.33,0,0,1,0,97.33Zm14.39-3.18,23.17.9-.29,7.49-23.18-.91Z"/><path class="cls-1" d="M45.08,67l-2.39,7.09L40,73.16a8.22,8.22,0,0,1,1,8.09,10.4,10.4,0,0,1-5.55,6.52,13,13,0,0,1-10,.48A12.44,12.44,0,0,1,18,81.87a11.74,11.74,0,0,1-.38-8.64,8.66,8.66,0,0,1,5.52-5.76L6.77,61.93l2.39-7.1ZM24.55,77.87A6,6,0,0,0,28.16,81a5.88,5.88,0,0,0,4.62-.36,5.67,5.67,0,0,0,2.77-3.18,6.39,6.39,0,0,0-.26-4.59,5.61,5.61,0,0,0-3.39-3,6,6,0,0,0-4.57.21,6,6,0,0,0-2.78,7.74Z"/><path class="cls-1" d="M54.26,39.6,43.09,52.83A6.36,6.36,0,0,0,47,54.31a5,5,0,0,0,3.59-2A6.06,6.06,0,0,0,52,49.57a4.51,4.51,0,0,0-.43-2.47l5.12-4.94a10.35,10.35,0,0,1,1.56,7.17A13.75,13.75,0,0,1,54.88,56c-2.25,2.67-4.71,4.61-8.52,4.93a12.44,12.44,0,0,1-9.08-3.11,13.2,13.2,0,0,1-4.71-8.6,12.12,12.12,0,0,1,3.19-8.94,12.23,12.23,0,0,1,8.6-4.79,13.18,13.18,0,0,1,9.3,3.57ZM46.38,42a6,6,0,0,0-3-.59,5,5,0,0,0-3.27,1.86,5.13,5.13,0,0,0-1.3,3.88,5.22,5.22,0,0,0,1.07,2.6Z"/><path class="cls-1" d="M79.32,24.56,64.24,33.07a6.34,6.34,0,0,0,3.17,2.76,5,5,0,0,0,4.06-.63,6.13,6.13,0,0,0,2.3-2.07,4.63,4.63,0,0,0,.46-2.47l6.51-2.84a10.33,10.33,0,0,1-1,7.27,13.77,13.77,0,0,1-5.54,5.1c-3,1.71-6,2.68-9.7,1.65A12.44,12.44,0,0,1,57,35.76a13.17,13.17,0,0,1-1.42-9.7,12.14,12.14,0,0,1,6.11-7.27,12.23,12.23,0,0,1,9.73-1.49,13.24,13.24,0,0,1,7.48,6.58Zm-8.22-.49a5.87,5.87,0,0,0-2.64-1.62,5.51,5.51,0,0,0-6.29,3.79,5.22,5.22,0,0,0,.1,2.81Z"/><path class="cls-1" d="M82.68,10.12,90.09,9l.4,2.72a8.49,8.49,0,0,1,6.6-4.4A9.15,9.15,0,0,1,104,8.66a9.11,9.11,0,0,1,3.32,6.39l2.17,14.5-7.4,1.11-1.77-11.78c-.22-1.49-.56-3.38-1.91-4.39a4,4,0,0,0-3-.6,4.09,4.09,0,0,0-2.9,1.69,5.91,5.91,0,0,0-.78,4.59l1.76,11.77-7.41,1.11Z"/></g></g></svg>