<svg xmlns="http://www.w3.org/2000/svg" viewBox="0 0 429.75 105.33"><defs><style>.cls-1{fill:#010101;}</style></defs><title>Element 1</title><g id="Ebene_2" data-name="Ebene 2"><g id="Logo"><path class="cls-1" d="M28.52,39.27l-7.88,63.91H0L7.88,39.27ZM20.92,0A11.93,11.93,0,0,1,33,12,12,12,0,1,1,8.89,12,11.92,11.92,0,0,1,20.92,0Z"/><path class="cls-1" d="M66.78,39.27l-1,7a30.08,30.08,0,0,1,7.88-6c4.58-2.44,8.17-2.72,12.61-2.72,5.3,0,11.75.71,16.62,5.44s5.45,11.32,5.45,15.19a95.53,95.53,0,0,1-1,12.18l-3.86,32.82H82.83l3.44-27.66a75.83,75.83,0,0,0,.86-10.31,11,11,0,0,0-2.58-7.74A10.6,10.6,0,0,0,77,54.74c-3.58,0-6.73.86-9.31,3.44-3.73,3.87-4.59,10-5,13.47L58.9,103.18H38.26l7.88-63.91Z"/><path class="cls-1" d="M162.2,56.32a20.23,20.23,0,0,0-12-4.3c-2,0-4.73.43-6.16,1.72a4.35,4.35,0,0,0-1.43,3.15,3.9,3.9,0,0,0,2,3.44c.43.29,1.43.72,5,1.72l4.73,1.29a23,23,0,0,1,11,6c3.3,3.3,4.73,7.17,4.73,12.18,0,7.88-3.29,13-6,15.77-6.88,7.16-16.91,8-22.5,8a38.87,38.87,0,0,1-16.62-3.15,37.3,37.3,0,0,1-9.89-6.59l8.74-13.91A30.28,30.28,0,0,0,131.67,87a23.45,23.45,0,0,0,8.89,2,12.16,12.16,0,0,0,6.31-1.43,4.38,4.38,0,0,0,2.57-4.15,4.6,4.6,0,0,0-2-4c-1.29-.86-3.3-1.29-5-1.86l-4.58-1.43c-3.44-1-7.74-2.73-10.75-5.74a16.24,16.24,0,0,1-4.3-11.46,21.16,21.16,0,0,1,6-14.9c6.59-6.45,16.48-6.88,21.06-6.88a35,35,0,0,1,21.07,6.45Z"/><path class="cls-1" d="M207.05,55.89l-5.87,47.29H180.54l5.88-47.29H179l2-16.62h7.45L191,18.63h20.64l-2.58,20.64h12.61l-2,16.62Z"/><path class="cls-1" d="M252.48,39.27l-7.88,63.91H224l7.89-63.91ZM244.89,0a11.92,11.92,0,0,1,12,12,12,12,0,1,1-24.07,0A11.93,11.93,0,0,1,244.89,0Z"/><path class="cls-1" d="M289.45,55.89l-5.87,47.29H262.94l5.88-47.29h-7.46l2-16.62h7.45l2.58-20.64H294l-2.58,20.64h12.61l-2,16.62Z"/><path class="cls-1" d="M378.3,39.27l-4,34.53c-.86,7.6-2.15,16.48-9.32,23.36-7.59,7.31-17.76,8.17-25.07,8.17-6.45,0-17.77-.43-24.94-7.31-4.3-4-6.88-10.46-6.88-17.19a81.5,81.5,0,0,1,.72-9l3.87-32.53H333.3l-3.72,31.81c-.43,4-.72,5.45-.72,7a9.12,9.12,0,0,0,2.73,7c1.86,1.72,5.44,2.73,8.45,2.73,3.3,0,7.17-1.15,9.46-3.58.86-.86,3.29-3.87,4.15-11.47l4-33.53Z"/><path class="cls-1" d="M415.13,55.89l-5.87,47.29H388.62l5.88-47.29H387l2-16.62h7.45l2.58-20.64h20.64l-2.58,20.64h12.61l-2,16.62Z"/></g></g></svg>